Coordinates
version=1
nRows=54
nColumns=12
inDegrees=yes

Units are S.I. units (second, meters, Newtons, ...)
Angles are in degrees

endheader
time	SC_y	SC_z	SC_x	AC_y	AC_z	AC_x	GH_y	GH_z	GH_yy	EL_x	PS_y
       0.0               -28.3          7.661          39.55          39.04          1.497           14.8         -75.73          60.44         -2.048          67.97          38.36
   0.01116              -28.31           7.66          39.55          39.04          1.498           14.8         -75.69          60.44         -2.041          67.97          38.35
   0.02232              -28.31          7.658          39.55          39.05          1.499           14.8         -75.66          60.45         -2.033          67.98          38.35
   0.03349              -28.31          7.656          39.56          39.05            1.5           14.8         -75.62          60.45         -2.024          67.99          38.35
   0.04465              -28.31          7.655          39.56          39.05          1.501           14.8         -75.58          60.45         -2.015          67.99          38.34
   0.05581              -28.32          7.653          39.57          39.05          1.503           14.8         -75.53          60.46         -2.005           68.0          38.34
   0.06697              -28.32          7.651          39.57          39.06          1.504           14.8         -75.48          60.46         -1.994          68.01          38.34
   0.07814              -28.32          7.649          39.57          39.06          1.505           14.8         -75.43          60.46         -1.983          68.02          38.33
    0.0893              -28.33          7.647          39.58          39.06          1.507           14.8         -75.38          60.47         -1.971          68.03          38.33
    0.1005              -28.33          7.644          39.58          39.07          1.508           14.8         -75.32          60.47         -1.958          68.04          38.32
    0.1116              -28.34          7.642          39.59          39.07           1.51           14.8         -75.26          60.48         -1.944          68.05          38.32
    0.1228              -28.34          7.639           39.6          39.08          1.512           14.8         -75.19          60.49         -1.929          68.07          38.31
    0.1339              -28.35          7.636           39.6          39.08          1.514           14.8         -75.12          60.49         -1.913          68.08          38.31
    0.1451              -28.35          7.633          39.61          39.08          1.516           14.8         -75.04           60.5         -1.896          68.09           38.3
    0.1563              -28.36          7.629          39.62          39.09          1.518           14.8         -74.95          60.51         -1.877          68.11          38.29
    0.1674              -28.36          7.626          39.63           39.1          1.521           14.8         -74.86          60.51         -1.857          68.13          38.29
    0.1786              -28.37          7.622          39.64           39.1          1.524           14.8         -74.76          60.52         -1.835          68.14          38.28
    0.1898              -28.38          7.617          39.65          39.11          1.527           14.8         -74.65          60.53         -1.811          68.16          38.27
    0.2009              -28.39          7.612          39.66          39.12           1.53           14.8         -74.53          60.54         -1.784          68.19          38.26
    0.2121               -28.4          7.607          39.67          39.12          1.533           14.8          -74.4          60.55         -1.755          68.21          38.25
    0.2232              -28.41          7.601          39.68          39.13          1.537           14.8         -74.26          60.56         -1.724          68.24          38.24
    0.2344              -28.42          7.595           39.7          39.14          1.542           14.8          -74.1          60.58         -1.689          68.26          38.23
    0.2456              -28.43          7.588          39.71          39.15          1.546           14.8         -73.93          60.59          -1.65           68.3          38.21
    0.2567              -28.44           7.58          39.73          39.17          1.552           14.8         -73.74          60.61         -1.608          68.33           38.2
    0.2679              -28.46          7.571          39.75          39.18          1.557           14.8         -73.52          60.63          -1.56          68.37          38.18
    0.2791              -28.47          7.561          39.77          39.19          1.564           14.8         -73.28          60.65         -1.507          68.41          38.16
    0.2902              -28.49           7.55           39.8          39.21          1.571           14.8         -73.02          60.67         -1.448          68.46          38.14
    0.3014              -28.51          7.538          39.82          39.23           1.58           14.8         -72.72           60.7         -1.381          68.52          38.11
    0.3125              -28.54          7.524          39.86          39.25          1.589           14.8         -72.38          60.72         -1.306          68.58          38.09
    0.3237              -28.56          7.509          39.89          39.27          1.599           14.8         -71.99          60.76         -1.221          68.65          38.05
    0.3349              -28.59          7.491          39.93           39.3          1.611           14.8         -71.55          60.79         -1.123          68.73          38.02
     0.346              -28.63           7.47          39.98          39.33          1.625           14.8         -71.04          60.84         -1.011          68.83          37.98
    0.3572              -28.67          7.446          40.03          39.37          1.641           14.8         -70.46          60.89        -0.8816          68.93          37.93
    0.3684              -28.72          7.418          40.09          39.41           1.66           14.8         -69.78          60.94        -0.7313          69.06          37.88
    0.3795              -28.77          7.386          40.17          39.46          1.681           14.8         -68.99          61.01        -0.5554           69.2          37.81
    0.3907              -28.84          7.348          40.25          39.52          1.707          14.81         -68.05          61.09        -0.3481          69.37          37.74
    0.4018              -28.92          7.302          40.35          39.59          1.737          14.81         -66.94          61.19        -0.1017          69.58          37.65
     0.413              -29.01          7.248          40.48          39.67          1.774          14.81          -65.6           61.3         0.1936          69.82          37.54
    0.4242              -29.12          7.182          40.63          39.77          1.818          14.81         -63.99          61.44         0.5508          70.12          37.41
    0.4353              -29.26          7.102          40.81          39.89          1.872          14.81         -62.02           61.6         0.9873          70.48          37.25
    0.4465              -29.43          7.003          41.03          40.04          1.938          14.81         -59.59          61.81          1.526          70.93          37.06
    0.4576              -29.64          6.879          41.31          40.23          2.021          14.81         -56.55          62.07          2.198          71.48          36.81
    0.4688               -29.9          6.723          41.66          40.47          2.125          14.81         -52.73          62.39          3.044          72.18           36.5
      0.48              -30.24          6.525          42.11          40.77          2.258          14.82         -47.87           62.8          4.119          73.08          36.11
    0.4911              -30.68          6.271          42.68          41.16          2.428          14.82         -41.66          63.33          5.496          74.22          35.61
    0.5023              -31.23          5.946          43.41          41.65          2.646          14.83         -33.68          64.01          7.263          75.68          34.97
    0.5135              -31.94           5.53          44.34          42.28          2.924          14.83         -23.48          64.87           9.52          77.55          34.15
    0.5246              -32.83          5.007          45.52          43.08          3.275          14.84         -10.67          65.96          12.36           79.9          33.12
    0.5358              -33.92           4.37          46.96          44.05          3.701          14.85          4.949          67.29          15.82          82.76          31.86
    0.5469              -35.18          3.632          48.62          45.17          4.196          14.86          23.05          68.82          19.82          86.08           30.4
    0.5581              -36.55          2.833          50.42          46.39          4.731          14.87          42.65          70.49          24.16          89.68          28.82
    0.5693              -37.91          2.033          52.22          47.61          5.267          14.88          62.25          72.15           28.5          93.28          27.24
    0.5804              -39.17          1.295          53.88          48.73          5.761          14.89          80.36          73.69          32.51           96.6          25.79
    0.5916              -40.26         0.6577          55.31           49.7          6.188           14.9          95.97          75.01          35.97          99.46          24.53
